<?xml version="1.0" encoding="UTF-8" standalone="no"?>
<!-- Generator: Adobe Illustrator 21.0.0, SVG Export Plug-In . SVG Version: 6.00 Build 0)  -->

<svg
   xmlns:dc="http://purl.org/dc/elements/1.1/"
   xmlns:cc="http://creativecommons.org/ns#"
   xmlns:rdf="http://www.w3.org/1999/02/22-rdf-syntax-ns#"
   xmlns:svg="http://www.w3.org/2000/svg"
   xmlns="http://www.w3.org/2000/svg"
   xmlns:xlink="http://www.w3.org/1999/xlink"
   xmlns:sodipodi="http://sodipodi.sourceforge.net/DTD/sodipodi-0.dtd"
   xmlns:inkscape="http://www.inkscape.org/namespaces/inkscape"
   version="1.1"
   id="Layer_1"
   x="0px"
   y="0px"
   viewBox="0 0 128 128"
   style="enable-background:new 0 0 128 128;"
   xml:space="preserve"
   inkscape:version="0.48.4 r9939"
   width="100%"
   height="100%"
   sodipodi:docname="Logo.svg"
   inkscape:export-filename="C:\Users\Andrew\Google Drive\Hackpoly 2017\Logo128.png"
   inkscape:export-xdpi="90"
   inkscape:export-ydpi="90"><metadata
   id="metadata856"><rdf:RDF><cc:Work
       rdf:about=""><dc:format>image/svg+xml</dc:format><dc:type
         rdf:resource="http://purl.org/dc/dcmitype/StillImage" /><dc:title></dc:title></cc:Work></rdf:RDF></metadata><defs
   id="defs854"><linearGradient
   id="linearGradient5062"><stop
     style="stop-color:#1c78bd;stop-opacity:1"
     offset="0"
     id="stop5064" /><stop
     style="stop-color:#25a8df;stop-opacity:1"
     offset="1"
     id="stop5066" /></linearGradient><linearGradient
   inkscape:collect="always"
   id="linearGradient5050"><stop
     style="stop-color:#242021;stop-opacity:1;"
     offset="0"
     id="stop5052" /><stop
     style="stop-color:#242021;stop-opacity:0;"
     offset="1"
     id="stop5054" /></linearGradient>
			
			
			
			
			
			
		
				
			<linearGradient
   inkscape:collect="always"
   xlink:href="#linearGradient5050"
   id="linearGradient5485"
   gradientUnits="userSpaceOnUse"
   x1="96.618141"
   y1="118.84834"
   x2="31.651571"
   y2="118.84834"
   gradientTransform="translate(0,0.70203277)" /><linearGradient
   inkscape:collect="always"
   xlink:href="#linearGradient5050"
   id="linearGradient5488"
   gradientUnits="userSpaceOnUse"
   x1="97.137459"
   y1="23.051985"
   x2="30.286345"
   y2="23.051985"
   gradientTransform="translate(0,0.70203277)" /><linearGradient
   inkscape:collect="always"
   xlink:href="#linearGradient5050"
   id="linearGradient5491"
   gradientUnits="userSpaceOnUse"
   x1="97.312668"
   y1="12.396695"
   x2="29.662006"
   y2="12.396695"
   gradientTransform="translate(0,0.70203277)" /><linearGradient
   inkscape:collect="always"
   xlink:href="#linearGradient5062"
   id="linearGradient5494"
   gradientUnits="userSpaceOnUse"
   x1="95.347206"
   y1="70.785316"
   x2="-6.4533596"
   y2="70.785316"
   gradientTransform="translate(0,0.70203277)" />
				
			
				
			
				
			
				
			
				
			</defs><sodipodi:namedview
   pagecolor="#ffffff"
   bordercolor="#666666"
   borderopacity="1"
   objecttolerance="10"
   gridtolerance="10"
   guidetolerance="10"
   inkscape:pageopacity="0"
   inkscape:pageshadow="2"
   inkscape:window-width="1920"
   inkscape:window-height="1058"
   id="namedview852"
   showgrid="false"
   inkscape:zoom="5.2149125"
   inkscape:cx="32.451626"
   inkscape:cy="57.06925"
   inkscape:window-x="-8"
   inkscape:window-y="-8"
   inkscape:window-maximized="1"
   inkscape:current-layer="XMLID_8_" />
<style
   type="text/css"
   id="style3">
	.st0{clip-path:url(#SVGID_2_);fill:#6D6E71;}
	.st1{clip-path:url(#SVGID_2_);fill:#6C6D70;}
	.st2{clip-path:url(#SVGID_2_);fill:#6B6C6F;}
	.st3{clip-path:url(#SVGID_2_);fill:#6A6B6E;}
	.st4{clip-path:url(#SVGID_2_);fill:#696A6D;}
	.st5{clip-path:url(#SVGID_2_);fill:#68696C;}
	.st6{clip-path:url(#SVGID_2_);fill:#67686B;}
	.st7{clip-path:url(#SVGID_2_);fill:#67676A;}
	.st8{clip-path:url(#SVGID_2_);fill:#666669;}
	.st9{clip-path:url(#SVGID_2_);fill:#656568;}
	.st10{clip-path:url(#SVGID_2_);fill:#646467;}
	.st11{clip-path:url(#SVGID_2_);fill:#636366;}
	.st12{clip-path:url(#SVGID_2_);fill:#626265;}
	.st13{clip-path:url(#SVGID_2_);fill:#616164;}
	.st14{clip-path:url(#SVGID_2_);fill:#606063;}
	.st15{clip-path:url(#SVGID_2_);fill:#5F5F62;}
	.st16{clip-path:url(#SVGID_2_);fill:#5E5E61;}
	.st17{clip-path:url(#SVGID_2_);fill:#5D5D60;}
	.st18{clip-path:url(#SVGID_2_);fill:#5C5C5F;}
	.st19{clip-path:url(#SVGID_2_);fill:#5B5B5E;}
	.st20{clip-path:url(#SVGID_2_);fill:#5A5A5D;}
	.st21{clip-path:url(#SVGID_2_);fill:#5A595C;}
	.st22{clip-path:url(#SVGID_2_);fill:#59585B;}
	.st23{clip-path:url(#SVGID_2_);fill:#58575A;}
	.st24{clip-path:url(#SVGID_2_);fill:#575659;}
	.st25{clip-path:url(#SVGID_2_);fill:#565558;}
	.st26{clip-path:url(#SVGID_2_);fill:#555457;}
	.st27{clip-path:url(#SVGID_2_);fill:#545356;}
	.st28{clip-path:url(#SVGID_2_);fill:#535255;}
	.st29{clip-path:url(#SVGID_2_);fill:#525154;}
	.st30{clip-path:url(#SVGID_2_);fill:#515053;}
	.st31{clip-path:url(#SVGID_2_);fill:#504F52;}
	.st32{clip-path:url(#SVGID_2_);fill:#4F4E51;}
	.st33{clip-path:url(#SVGID_2_);fill:#4E4D50;}
	.st34{clip-path:url(#SVGID_2_);fill:#4E4C4F;}
	.st35{clip-path:url(#SVGID_2_);fill:#4D4B4E;}
	.st36{clip-path:url(#SVGID_2_);fill:#4C4A4D;}
	.st37{clip-path:url(#SVGID_2_);fill:#4B494C;}
	.st38{clip-path:url(#SVGID_2_);fill:#4A484B;}
	.st39{clip-path:url(#SVGID_2_);fill:#49474A;}
	.st40{clip-path:url(#SVGID_2_);fill:#484648;}
	.st41{clip-path:url(#SVGID_2_);fill:#474647;}
	.st42{clip-path:url(#SVGID_2_);fill:#464546;}
	.st43{clip-path:url(#SVGID_2_);fill:#454445;}
	.st44{clip-path:url(#SVGID_2_);fill:#444344;}
	.st45{clip-path:url(#SVGID_2_);fill:#434243;}
	.st46{clip-path:url(#SVGID_2_);fill:#424142;}
	.st47{clip-path:url(#SVGID_2_);fill:#424041;}
	.st48{clip-path:url(#SVGID_2_);fill:#413F40;}
	.st49{clip-path:url(#SVGID_2_);fill:#403E3F;}
	.st50{clip-path:url(#SVGID_2_);fill:#3F3D3E;}
	.st51{clip-path:url(#SVGID_2_);fill:#3E3C3D;}
	.st52{clip-path:url(#SVGID_2_);fill:#3D3B3C;}
	.st53{clip-path:url(#SVGID_2_);fill:#3C3A3B;}
	.st54{clip-path:url(#SVGID_2_);fill:#3B393A;}
	.st55{clip-path:url(#SVGID_2_);fill:#3A3839;}
	.st56{clip-path:url(#SVGID_2_);fill:#393738;}
	.st57{clip-path:url(#SVGID_2_);fill:#383637;}
	.st58{clip-path:url(#SVGID_2_);fill:#373536;}
	.st59{clip-path:url(#SVGID_2_);fill:#363435;}
	.st60{clip-path:url(#SVGID_2_);fill:#353334;}
	.st61{clip-path:url(#SVGID_2_);fill:#353233;}
	.st62{clip-path:url(#SVGID_2_);fill:#343132;}
	.st63{clip-path:url(#SVGID_2_);fill:#333031;}
	.st64{clip-path:url(#SVGID_2_);fill:#322F30;}
	.st65{clip-path:url(#SVGID_2_);fill:#312E2F;}
	.st66{clip-path:url(#SVGID_2_);fill:#302D2E;}
	.st67{clip-path:url(#SVGID_2_);fill:#2F2C2D;}
	.st68{clip-path:url(#SVGID_2_);fill:#2E2B2C;}
	.st69{clip-path:url(#SVGID_2_);fill:#2D2A2B;}
	.st70{clip-path:url(#SVGID_2_);fill:#2C292A;}
	.st71{clip-path:url(#SVGID_2_);fill:#2B2829;}
	.st72{clip-path:url(#SVGID_2_);fill:#2A2728;}
	.st73{clip-path:url(#SVGID_2_);fill:#292627;}
	.st74{clip-path:url(#SVGID_2_);fill:#292526;}
	.st75{clip-path:url(#SVGID_2_);fill:#282425;}
	.st76{clip-path:url(#SVGID_2_);fill:#272324;}
	.st77{clip-path:url(#SVGID_2_);fill:#262223;}
	.st78{clip-path:url(#SVGID_2_);fill:#252122;}
	.st79{clip-path:url(#SVGID_2_);fill:#242021;}
	.st80{clip-path:url(#SVGID_2_);fill:#231F20;}
	.st81{clip-path:url(#SVGID_4_);fill:#229BD6;}
	.st82{clip-path:url(#SVGID_4_);fill:#229AD5;}
	.st83{clip-path:url(#SVGID_4_);fill:#2299D4;}
	.st84{clip-path:url(#SVGID_4_);fill:#2298D4;}
	.st85{clip-path:url(#SVGID_4_);fill:#2197D3;}
	.st86{clip-path:url(#SVGID_4_);fill:#2196D2;}
	.st87{clip-path:url(#SVGID_4_);fill:#2195D1;}
	.st88{clip-path:url(#SVGID_4_);fill:#2194D1;}
	.st89{clip-path:url(#SVGID_4_);fill:#2193D0;}
	.st90{clip-path:url(#SVGID_4_);fill:#2092CF;}
	.st91{clip-path:url(#SVGID_4_);fill:#2091CF;}
	.st92{clip-path:url(#SVGID_4_);fill:#2090CE;}
	.st93{clip-path:url(#SVGID_4_);fill:#208ECD;}
	.st94{clip-path:url(#SVGID_4_);fill:#208DCC;}
	.st95{clip-path:url(#SVGID_4_);fill:#208CCC;}
	.st96{clip-path:url(#SVGID_4_);fill:#1F8BCB;}
	.st97{clip-path:url(#SVGID_4_);fill:#1F8ACA;}
	.st98{clip-path:url(#SVGID_4_);fill:#1F89CA;}
	.st99{clip-path:url(#SVGID_4_);fill:#1F88C9;}
	.st100{clip-path:url(#SVGID_4_);fill:#1F87C8;}
	.st101{clip-path:url(#SVGID_4_);fill:#1E86C7;}
	.st102{clip-path:url(#SVGID_4_);fill:#1E85C7;}
	.st103{clip-path:url(#SVGID_4_);fill:#1E84C6;}
	.st104{clip-path:url(#SVGID_4_);fill:#1E83C5;}
	.st105{clip-path:url(#SVGID_4_);fill:#1E82C4;}
	.st106{clip-path:url(#SVGID_4_);fill:#24A5DD;}
	.st107{clip-path:url(#SVGID_4_);fill:#24A4DC;}
	.st108{clip-path:url(#SVGID_4_);fill:#24A3DC;}
	.st109{clip-path:url(#SVGID_4_);fill:#24A2DB;}
	.st110{clip-path:url(#SVGID_4_);fill:#23A1DA;}
	.st111{clip-path:url(#SVGID_4_);fill:#23A0D9;}
	.st112{clip-path:url(#SVGID_4_);fill:#239FD9;}
	.st113{clip-path:url(#SVGID_4_);fill:#239ED8;}
	.st114{clip-path:url(#SVGID_4_);fill:#239DD7;}
	.st115{clip-path:url(#SVGID_4_);fill:#229CD7;}
	.st116{clip-path:url(#SVGID_4_);fill:#1D81C4;}
	.st117{clip-path:url(#SVGID_4_);fill:#1D80C3;}
	.st118{clip-path:url(#SVGID_4_);fill:#1D7FC2;}
	.st119{clip-path:url(#SVGID_4_);fill:#1D7EC2;}
	.st120{clip-path:url(#SVGID_4_);fill:#1D7DC1;}
	.st121{clip-path:url(#SVGID_4_);fill:#1C7CC0;}
	.st122{clip-path:url(#SVGID_4_);fill:#1C7BBF;}
	.st123{clip-path:url(#SVGID_4_);fill:#1C7ABF;}
	.st124{clip-path:url(#SVGID_4_);fill:#1C79BE;}
	.st125{clip-path:url(#SVGID_4_);fill:#25A9E0;}
	.st126{clip-path:url(#SVGID_4_);fill:#25A8DF;}
	.st127{clip-path:url(#SVGID_4_);fill:#25A7DF;}
	.st128{clip-path:url(#SVGID_4_);fill:#24A6DE;}
	.st129{clip-path:url(#SVGID_4_);fill:#1C78BD;}
	.st130{clip-path:url(#SVGID_4_);fill:#1B77BC;}
	.st131{clip-path:url(#SVGID_4_);fill:#1B76BC;}
	.st132{clip-path:url(#SVGID_4_);fill:#1B75BB;}
	.st133{clip-path:url(#SVGID_6_);fill:#6D6E71;}
	.st134{clip-path:url(#SVGID_6_);fill:#6C6D70;}
	.st135{clip-path:url(#SVGID_6_);fill:#6B6C6F;}
	.st136{clip-path:url(#SVGID_6_);fill:#6A6B6E;}
	.st137{clip-path:url(#SVGID_6_);fill:#696A6D;}
	.st138{clip-path:url(#SVGID_6_);fill:#68696C;}
	.st139{clip-path:url(#SVGID_6_);fill:#67686B;}
	.st140{clip-path:url(#SVGID_6_);fill:#67676A;}
	.st141{clip-path:url(#SVGID_6_);fill:#666669;}
	.st142{clip-path:url(#SVGID_6_);fill:#656568;}
	.st143{clip-path:url(#SVGID_6_);fill:#646467;}
	.st144{clip-path:url(#SVGID_6_);fill:#636366;}
	.st145{clip-path:url(#SVGID_6_);fill:#626265;}
	.st146{clip-path:url(#SVGID_6_);fill:#616164;}
	.st147{clip-path:url(#SVGID_6_);fill:#606063;}
	.st148{clip-path:url(#SVGID_6_);fill:#5F5F62;}
	.st149{clip-path:url(#SVGID_6_);fill:#5E5E61;}
	.st150{clip-path:url(#SVGID_6_);fill:#5D5D60;}
	.st151{clip-path:url(#SVGID_6_);fill:#5C5C5F;}
	.st152{clip-path:url(#SVGID_6_);fill:#5B5B5E;}
	.st153{clip-path:url(#SVGID_6_);fill:#5A5A5D;}
	.st154{clip-path:url(#SVGID_6_);fill:#5A595C;}
	.st155{clip-path:url(#SVGID_6_);fill:#59585B;}
	.st156{clip-path:url(#SVGID_6_);fill:#58575A;}
	.st157{clip-path:url(#SVGID_6_);fill:#575659;}
	.st158{clip-path:url(#SVGID_6_);fill:#565558;}
	.st159{clip-path:url(#SVGID_6_);fill:#555457;}
	.st160{clip-path:url(#SVGID_6_);fill:#545356;}
	.st161{clip-path:url(#SVGID_6_);fill:#535255;}
	.st162{clip-path:url(#SVGID_6_);fill:#525154;}
	.st163{clip-path:url(#SVGID_6_);fill:#515053;}
	.st164{clip-path:url(#SVGID_6_);fill:#504F52;}
	.st165{clip-path:url(#SVGID_6_);fill:#4F4E51;}
	.st166{clip-path:url(#SVGID_6_);fill:#4E4D50;}
	.st167{clip-path:url(#SVGID_6_);fill:#4E4C4F;}
	.st168{clip-path:url(#SVGID_6_);fill:#4D4B4E;}
	.st169{clip-path:url(#SVGID_6_);fill:#4C4A4D;}
	.st170{clip-path:url(#SVGID_6_);fill:#4B494C;}
	.st171{clip-path:url(#SVGID_6_);fill:#4A484B;}
	.st172{clip-path:url(#SVGID_6_);fill:#49474A;}
	.st173{clip-path:url(#SVGID_6_);fill:#484648;}
	.st174{clip-path:url(#SVGID_6_);fill:#474647;}
	.st175{clip-path:url(#SVGID_6_);fill:#464546;}
	.st176{clip-path:url(#SVGID_6_);fill:#454445;}
	.st177{clip-path:url(#SVGID_6_);fill:#444344;}
	.st178{clip-path:url(#SVGID_6_);fill:#434243;}
	.st179{clip-path:url(#SVGID_6_);fill:#424142;}
	.st180{clip-path:url(#SVGID_6_);fill:#424041;}
	.st181{clip-path:url(#SVGID_6_);fill:#413F40;}
	.st182{clip-path:url(#SVGID_6_);fill:#403E3F;}
	.st183{clip-path:url(#SVGID_6_);fill:#3F3D3E;}
	.st184{clip-path:url(#SVGID_6_);fill:#3E3C3D;}
	.st185{clip-path:url(#SVGID_6_);fill:#3D3B3C;}
	.st186{clip-path:url(#SVGID_6_);fill:#3C3A3B;}
	.st187{clip-path:url(#SVGID_6_);fill:#3B393A;}
	.st188{clip-path:url(#SVGID_6_);fill:#3A3839;}
	.st189{clip-path:url(#SVGID_6_);fill:#393738;}
	.st190{clip-path:url(#SVGID_6_);fill:#383637;}
	.st191{clip-path:url(#SVGID_6_);fill:#373536;}
	.st192{clip-path:url(#SVGID_6_);fill:#363435;}
	.st193{clip-path:url(#SVGID_6_);fill:#353334;}
	.st194{clip-path:url(#SVGID_6_);fill:#353233;}
	.st195{clip-path:url(#SVGID_6_);fill:#343132;}
	.st196{clip-path:url(#SVGID_6_);fill:#333031;}
	.st197{clip-path:url(#SVGID_6_);fill:#322F30;}
	.st198{clip-path:url(#SVGID_6_);fill:#312E2F;}
	.st199{clip-path:url(#SVGID_6_);fill:#302D2E;}
	.st200{clip-path:url(#SVGID_6_);fill:#2F2C2D;}
	.st201{clip-path:url(#SVGID_6_);fill:#2E2B2C;}
	.st202{clip-path:url(#SVGID_6_);fill:#2D2A2B;}
	.st203{clip-path:url(#SVGID_6_);fill:#2C292A;}
	.st204{clip-path:url(#SVGID_6_);fill:#2B2829;}
	.st205{clip-path:url(#SVGID_6_);fill:#2A2728;}
	.st206{clip-path:url(#SVGID_6_);fill:#292627;}
	.st207{clip-path:url(#SVGID_6_);fill:#292526;}
	.st208{clip-path:url(#SVGID_6_);fill:#282425;}
	.st209{clip-path:url(#SVGID_6_);fill:#272324;}
	.st210{clip-path:url(#SVGID_6_);fill:#262223;}
	.st211{clip-path:url(#SVGID_6_);fill:#252122;}
	.st212{clip-path:url(#SVGID_6_);fill:#242021;}
	.st213{clip-path:url(#SVGID_6_);fill:#231F20;}
	.st214{fill:#EFE4AC;}
	.st215{clip-path:url(#SVGID_8_);fill:#6D6E71;}
	.st216{clip-path:url(#SVGID_8_);fill:#6C6D70;}
	.st217{clip-path:url(#SVGID_8_);fill:#6B6C6F;}
	.st218{clip-path:url(#SVGID_8_);fill:#6A6B6E;}
	.st219{clip-path:url(#SVGID_8_);fill:#696A6D;}
	.st220{clip-path:url(#SVGID_8_);fill:#68696C;}
	.st221{clip-path:url(#SVGID_8_);fill:#67686B;}
	.st222{clip-path:url(#SVGID_8_);fill:#67676A;}
	.st223{clip-path:url(#SVGID_8_);fill:#666669;}
	.st224{clip-path:url(#SVGID_8_);fill:#656568;}
	.st225{clip-path:url(#SVGID_8_);fill:#646467;}
	.st226{clip-path:url(#SVGID_8_);fill:#636366;}
	.st227{clip-path:url(#SVGID_8_);fill:#626265;}
	.st228{clip-path:url(#SVGID_8_);fill:#616164;}
	.st229{clip-path:url(#SVGID_8_);fill:#606063;}
	.st230{clip-path:url(#SVGID_8_);fill:#5F5F62;}
	.st231{clip-path:url(#SVGID_8_);fill:#5E5E61;}
	.st232{clip-path:url(#SVGID_8_);fill:#5D5D60;}
	.st233{clip-path:url(#SVGID_8_);fill:#5C5C5F;}
	.st234{clip-path:url(#SVGID_8_);fill:#5B5B5E;}
	.st235{clip-path:url(#SVGID_8_);fill:#5A5A5D;}
	.st236{clip-path:url(#SVGID_8_);fill:#5A595C;}
	.st237{clip-path:url(#SVGID_8_);fill:#59585B;}
	.st238{clip-path:url(#SVGID_8_);fill:#58575A;}
	.st239{clip-path:url(#SVGID_8_);fill:#575659;}
	.st240{clip-path:url(#SVGID_8_);fill:#565558;}
	.st241{clip-path:url(#SVGID_8_);fill:#555457;}
	.st242{clip-path:url(#SVGID_8_);fill:#545356;}
	.st243{clip-path:url(#SVGID_8_);fill:#535255;}
	.st244{clip-path:url(#SVGID_8_);fill:#525154;}
	.st245{clip-path:url(#SVGID_8_);fill:#515053;}
	.st246{clip-path:url(#SVGID_8_);fill:#504F52;}
	.st247{clip-path:url(#SVGID_8_);fill:#4F4E51;}
	.st248{clip-path:url(#SVGID_8_);fill:#4E4D50;}
	.st249{clip-path:url(#SVGID_8_);fill:#4E4C4F;}
	.st250{clip-path:url(#SVGID_8_);fill:#4D4B4E;}
	.st251{clip-path:url(#SVGID_8_);fill:#4C4A4D;}
	.st252{clip-path:url(#SVGID_8_);fill:#4B494C;}
	.st253{clip-path:url(#SVGID_8_);fill:#4A484B;}
	.st254{clip-path:url(#SVGID_8_);fill:#49474A;}
	.st255{clip-path:url(#SVGID_8_);fill:#484648;}
	.st256{clip-path:url(#SVGID_8_);fill:#474647;}
	.st257{clip-path:url(#SVGID_8_);fill:#464546;}
	.st258{clip-path:url(#SVGID_8_);fill:#454445;}
	.st259{clip-path:url(#SVGID_8_);fill:#444344;}
	.st260{clip-path:url(#SVGID_8_);fill:#434243;}
	.st261{clip-path:url(#SVGID_8_);fill:#424142;}
	.st262{clip-path:url(#SVGID_8_);fill:#424041;}
	.st263{clip-path:url(#SVGID_8_);fill:#413F40;}
	.st264{clip-path:url(#SVGID_8_);fill:#403E3F;}
	.st265{clip-path:url(#SVGID_8_);fill:#3F3D3E;}
	.st266{clip-path:url(#SVGID_8_);fill:#3E3C3D;}
	.st267{clip-path:url(#SVGID_8_);fill:#3D3B3C;}
	.st268{clip-path:url(#SVGID_8_);fill:#3C3A3B;}
	.st269{clip-path:url(#SVGID_8_);fill:#3B393A;}
	.st270{clip-path:url(#SVGID_8_);fill:#3A3839;}
	.st271{clip-path:url(#SVGID_8_);fill:#393738;}
	.st272{clip-path:url(#SVGID_8_);fill:#383637;}
	.st273{clip-path:url(#SVGID_8_);fill:#373536;}
	.st274{clip-path:url(#SVGID_8_);fill:#363435;}
	.st275{clip-path:url(#SVGID_8_);fill:#353334;}
	.st276{clip-path:url(#SVGID_8_);fill:#353233;}
	.st277{clip-path:url(#SVGID_8_);fill:#343132;}
	.st278{clip-path:url(#SVGID_8_);fill:#333031;}
	.st279{clip-path:url(#SVGID_8_);fill:#322F30;}
	.st280{clip-path:url(#SVGID_8_);fill:#312E2F;}
	.st281{clip-path:url(#SVGID_8_);fill:#302D2E;}
	.st282{clip-path:url(#SVGID_8_);fill:#2F2C2D;}
	.st283{clip-path:url(#SVGID_8_);fill:#2E2B2C;}
	.st284{clip-path:url(#SVGID_8_);fill:#2D2A2B;}
	.st285{clip-path:url(#SVGID_8_);fill:#2C292A;}
	.st286{clip-path:url(#SVGID_8_);fill:#2B2829;}
	.st287{clip-path:url(#SVGID_8_);fill:#2A2728;}
	.st288{clip-path:url(#SVGID_8_);fill:#292627;}
	.st289{clip-path:url(#SVGID_8_);fill:#292526;}
	.st290{clip-path:url(#SVGID_8_);fill:#282425;}
	.st291{clip-path:url(#SVGID_8_);fill:#272324;}
	.st292{clip-path:url(#SVGID_8_);fill:#262223;}
	.st293{clip-path:url(#SVGID_8_);fill:#252122;}
	.st294{clip-path:url(#SVGID_8_);fill:#242021;}
	.st295{clip-path:url(#SVGID_8_);fill:#231F20;}
</style>
<g
   id="g5"
   transform="translate(0,-0.70203277)">
	<g
   id="XMLID_8_">
		<path
   style="fill:#efe4ac;fill-opacity:1;stroke:none"
   d="m 61.404994,113.18535 c -10.101473,-0.50351 -17.970993,-2.81723 -20.79343,-6.1135 -0.932433,-1.08897 -1.104875,-1.86424 -1.104875,-4.96735 0,-5.507843 0.448844,-8.098619 1.954134,-11.279474 0.816722,-1.72583 1.682011,-2.935103 5.317708,-7.431692 3.796336,-4.695265 4.234723,-5.168155 5.047952,-5.44525 0.990431,-0.337474 1.518482,-0.267943 2.689859,0.354188 0.581978,0.309095 1.277387,0.676838 1.54535,0.817206 1.007317,0.527666 2.771947,0.581901 3.966936,0.121922 0.212491,-0.08179 0.950338,-0.51407 1.639658,-0.960616 2.090837,-1.354454 2.988133,-1.334502 4.977223,0.110667 1.536018,1.115991 2.41969,1.424104 3.850773,1.342662 1.144358,-0.06512 1.722053,-0.280122 2.875294,-1.07008 1.37914,-0.944697 2.450322,-1.144004 3.525509,-0.655965 0.31726,0.144007 0.734628,0.432093 0.927486,0.64019 0.82315,0.888194 6.899524,8.492491 6.869731,8.597147 -0.018,0.06323 0.304268,0.609866 0.716148,1.214752 1.556821,2.286339 2.567466,4.822931 3.04262,7.636596 0.258182,1.528837 0.284601,2.134651 0.24759,5.677487 l -0.04143,3.96604 -0.361465,0.61483 c -1.898268,3.22886 -9.02843,5.81472 -18.282603,6.63045 -1.703544,0.15016 -7.095639,0.27528 -8.610169,0.19979 l 0,0 z"
   id="path5038"
   inkscape:connector-curvature="0" /><path
   style="fill:#efe4ac;fill-opacity:1;stroke:none"
   d="M 63.528577,64.486043 C 62.620761,63.556155 51.764827,51.12781 51.659313,50.897594 c -0.214021,-0.466966 0.0091,-0.919137 0.539958,-1.094341 0.718695,-0.237191 1.273886,-0.09218 2.618778,0.684004 1.420037,0.819552 2.214719,1.083532 3.261851,1.083532 1.0961,0 1.983861,-0.306126 3.206245,-1.105608 1.405953,-0.919542 2.03042,-1.192894 2.733374,-1.196499 0.756134,-0.0039 1.355642,0.256459 2.45461,1.065918 1.202667,0.88584 1.841921,1.191208 2.90291,1.386703 1.281011,0.236036 2.387201,-0.05691 3.824565,-1.012837 0.59661,-0.396779 1.314825,-0.797343 1.596031,-0.890143 1.116295,-0.368382 2.240376,0.22952 1.887512,1.003972 -0.199596,0.438065 -12.018133,13.84302 -12.300183,13.951253 -0.36502,0.14007 -0.475009,0.103146 -0.856387,-0.287505 l 0,0 z"
   id="path5040"
   inkscape:connector-curvature="0" /><path
   style="fill:url(#linearGradient5494);fill-opacity:1;stroke:none"
   d="m 58.797814,117.45924 c -10.287392,-0.65572 -19.521193,-3.37371 -22.630494,-6.66134 -1.194661,-1.26318 -1.161685,-1.00538 -1.099183,-8.59309 0.05093,-6.182432 0.07438,-6.719588 0.344566,-7.891028 0.636311,-2.758867 1.786336,-5.521791 3.202961,-7.695084 0.413348,-0.634133 3.353461,-4.396156 6.533583,-8.360049 3.180123,-3.963894 6.011188,-7.561616 6.291257,-7.994936 2.172464,-3.361224 2.153832,-8.057478 -0.04519,-11.390482 -0.312712,-0.473971 -3.01136,-3.882104 -5.996995,-7.573629 -2.985635,-3.691525 -5.704563,-7.077966 -6.042062,-7.525424 -1.8032,-2.390686 -3.233053,-5.576195 -3.92938,-8.754094 -0.275612,-1.257844 -0.316175,-1.872398 -0.364394,-5.520901 l -0.05426,-4.105503 0.871437,0.609178 c 7.2404,5.061401 25.146806,7.382736 40.304994,5.225024 6.838358,-0.973415 12.945961,-2.90208 16.161418,-5.103469 l 0.855531,-0.585719 -0.0025,3.287234 c -0.004,5.259071 -0.574386,8.046762 -2.386455,11.662959 -0.910152,1.816315 -1.880025,3.124167 -7.929386,10.6926 -6.431838,8.046953 -6.755581,8.518473 -7.336422,10.685205 -0.365101,1.36195 -0.386494,3.750187 -0.04563,5.093927 0.281224,1.108626 0.959292,2.645375 1.539022,3.487984 0.22446,0.326238 2.98087,3.824057 6.12536,7.772929 3.144488,3.94887 6.115967,7.780446 6.603287,8.514612 1.870283,2.817656 3.036367,6.090634 3.423441,9.608962 0.08029,0.729776 0.143531,3.872684 0.141881,7.050844 -0.0034,6.53758 0.02873,6.33179 -1.176694,7.53655 -3.316345,3.31449 -12.126453,5.84397 -22.750217,6.53186 -2.43584,0.15772 -8.09763,0.15499 -10.609495,-0.005 l 0,-1e-5 z m 12.369892,-2.63333 c 10.003497,-1.08394 17.071068,-3.99054 18.95462,-7.79525 l 0.43521,-0.87911 -0.0036,-4.9514 c -0.0033,-4.59552 -0.02496,-5.046498 -0.300815,-6.274583 -0.627368,-2.79301 -1.714283,-5.345401 -3.214542,-7.548671 -0.412437,-0.605702 -0.735158,-1.153165 -0.717158,-1.216583 0.018,-0.06342 -1.594701,-2.127497 -3.583778,-4.586844 -3.805371,-4.705056 -4.233406,-5.128702 -5.588413,-5.531097 -0.85444,-0.253741 -2.157752,-0.256812 -2.98768,-0.007 -0.353363,0.106346 -1.110517,0.500563 -1.682567,0.876037 -1.821039,1.195266 -2.798547,1.213375 -4.394281,0.0814 -1.574004,-1.116556 -2.361596,-1.459123 -3.514077,-1.528465 -1.45481,-0.08753 -2.230412,0.137159 -3.61755,1.048003 -2.057034,1.35072 -2.927437,1.507223 -4.301068,0.773354 -2.396802,-1.280502 -3.020592,-1.457946 -4.5078,-1.282291 -1.014432,0.119814 -2.212442,0.713295 -2.908089,1.440632 -0.621115,0.64941 -6.619541,8.076408 -7.701738,9.535967 -0.952066,1.28405 -2.395629,4.143007 -2.899975,5.743359 -0.796293,2.526736 -1.027866,4.567056 -1.021191,8.997412 0.0051,3.39271 0.107255,4.20651 0.675251,5.37983 1.071255,2.21292 4.556356,4.43111 9.150427,5.82405 3.770309,1.14316 7.34688,1.7365 13.016949,2.15945 1.63493,0.12196 8.796742,-0.0507 10.711865,-0.25816 l -7e-6,-1e-5 z M 65.207531,66.502218 c 0.630361,-0.286331 0.997277,-0.676522 8.046405,-8.556834 2.767633,-3.093973 5.136815,-5.839736 5.264849,-6.101695 0.30029,-0.614396 0.298557,-1.953234 -0.0033,-2.531884 -0.956697,-1.83409 -3.773523,-2.06617 -6.062943,-0.499532 -1.008119,0.689851 -1.461086,0.870117 -2.20885,0.879048 -0.884991,0.01058 -1.431537,-0.212405 -2.544919,-1.038261 -1.550308,-1.149949 -2.811003,-1.519423 -4.342761,-1.272741 -0.908175,0.146258 -1.555015,0.43574 -2.696804,1.206906 -1.257992,0.849652 -1.629608,0.996468 -2.527524,0.998567 -0.760362,0.0018 -0.940976,-0.0606 -2.081521,-0.718845 -1.430941,-0.825847 -2.202682,-1.092769 -3.159481,-1.092769 -1.895025,0 -3.203976,1.189053 -3.211543,2.91737 -0.0017,0.395719 0.09624,0.863212 0.234311,1.118055 0.130508,0.240887 3.013559,3.590037 6.406779,7.442556 6.545195,7.431139 6.615867,7.499115 7.79661,7.499115 0.298305,0 0.789108,-0.112076 1.090673,-0.249056 z"
   id="path5042"
   inkscape:connector-curvature="0"
   inkscape:export-xdpi="90"
   inkscape:export-ydpi="90" /><path
   style="fill:url(#linearGradient5491);fill-opacity:1;stroke:none"
   d="M 59.913469,21.932092 C 51.204117,21.297072 45.344448,20.108031 40.543306,18.001507 36.965392,16.43168 34.806697,14.374195 35.099577,12.813007 35.297919,11.755753 36.290766,10.547304 37.785129,9.5442742 39.52528,8.3762688 42.7451,7.0932165 46.08296,6.2377073 51.446149,4.8630964 57.144095,4.2276046 64.116858,4.2263868 c 5.148125,-8.99e-4 9.158384,0.2954564 13.227948,0.9775368 8.258353,1.3841438 14.513274,4.1313777 15.702984,6.8969334 1.725275,4.01051 -7.480221,8.196515 -21.066525,9.579555 -1.905897,0.194013 -10.422614,0.371635 -12.067796,0.25168 z"
   id="path5044"
   inkscape:connector-curvature="0" /><path
   style="fill:url(#linearGradient5488);fill-opacity:1;stroke:none"
   d="m 60.116858,28.847669 c -7.029197,-0.45514 -12.124148,-1.333509 -16.8078,-2.897664 -3.207783,-1.071273 -5.459359,-2.249313 -6.94952,-3.636034 -0.907668,-0.844662 -1.324372,-1.738615 -1.326101,-2.844877 -7.28e-4,-0.466102 0.02859,-0.847458 0.06515,-0.847458 0.03656,0 0.452061,0.263979 0.923327,0.586621 3.883512,2.658756 11.285362,4.711065 20.162736,5.590515 2.978027,0.295023 9.926069,0.403912 13.084746,0.205064 10.141322,-0.638428 18.522558,-2.730557 23.019631,-5.746174 l 0.912572,-0.611946 0,1.083625 c 0,1.008576 -0.0323,1.132172 -0.466419,1.78457 -2.187665,3.287673 -10.225703,6.010652 -20.889513,7.076566 -2.032088,0.20312 -9.89952,0.375639 -11.728814,0.257192 z"
   id="path5046"
   inkscape:connector-curvature="0" /><path
   style="fill:url(#linearGradient5485);fill-opacity:1;stroke:none"
   d="m 60.049062,124.84846 c -3.80403,-0.27486 -5.027561,-0.38618 -6.779661,-0.61679 -7.957049,-1.04729 -14.344911,-3.26985 -16.984558,-5.90949 -0.885648,-0.88565 -1.249791,-1.77505 -1.251406,-3.05648 -7.28e-4,-0.57797 0.02859,-1.05085 0.06515,-1.05085 0.03656,0 0.473977,0.27899 0.972029,0.61997 6.791073,4.64935 23.028477,6.98299 37.605559,5.40467 5.07544,-0.54954 9.961575,-1.61651 13.762712,-3.00534 1.638619,-0.59871 4.44577,-1.99905 5.191815,-2.58993 0.298169,-0.23615 0.579107,-0.42937 0.624307,-0.42937 0.178193,0 0.07639,2.19207 -0.124082,2.67187 -1.491713,3.57017 -9.641455,6.53986 -21.149667,7.70674 -1.902446,0.19289 -10.306195,0.3725 -11.932203,0.255 l 0,0 z"
   id="path5048"
   inkscape:connector-curvature="0" />
		<g
   id="g802"
   style="fill:#000000;fill-opacity:1;stroke:#000000;stroke-opacity:1;stroke-width:0.3;stroke-miterlimit:4;stroke-dasharray:none">
			<g
   id="g804"
   style="fill:#000000;fill-opacity:1;stroke:#000000;stroke-opacity:1;stroke-width:0.3;stroke-miterlimit:4;stroke-dasharray:none">
				<path
   d="m 64.2,115.1 c -14.8,0 -26.4,-4.4 -26.4,-10.1 h 1.8 c 0,4 9.9,8.3 24.6,8.3 14.7,0 24.6,-4.3 24.6,-8.3 h 1.8 c 0,5.7 -11.6,10.1 -26.4,10.1 z"
   id="path806"
   inkscape:connector-curvature="0"
   style="fill:#000000;fill-opacity:1;stroke:#000000;stroke-opacity:1;stroke-width:0.3;stroke-miterlimit:4;stroke-dasharray:none" />
			</g>
			<g
   id="g808"
   style="fill:#000000;fill-opacity:1;stroke:#000000;stroke-opacity:1;stroke-width:0.3;stroke-miterlimit:4;stroke-dasharray:none">
				<path
   d="M 64.2,25.1 C 48.6,25.1 32,20.9 32,13.1 c 0,-7.8 16.6,-12 32.2,-12 15.6,0 32.2,4.2 32.2,12 0,7.8 -16.6,12 -32.2,12 z m 0,-21 C 47,4.1 35,8.8 35,13.1 c 0,4.2 12.5,9 29.2,9 16.7,0 29.2,-4.7 29.2,-9 0,-4.2 -12,-9 -29.2,-9 z"
   id="path810"
   inkscape:connector-curvature="0"
   style="fill:#000000;fill-opacity:1;stroke:#000000;stroke-opacity:1;stroke-width:0.3;stroke-miterlimit:4;stroke-dasharray:none" />
			</g>
			<g
   id="g812"
   style="fill:#000000;fill-opacity:1;stroke:#000000;stroke-opacity:1;stroke-width:0.3;stroke-miterlimit:4;stroke-dasharray:none">
				<path
   d="M 64.2,128 C 48.6,128 32,123.8 32,116 h 3 c 0,4.3 12,9 29.2,9 17.2,0 29.2,-4.7 29.2,-9 h 3 c 0,7.8 -16.6,12 -32.2,12 z"
   id="path814"
   inkscape:connector-curvature="0"
   style="fill:#000000;fill-opacity:1;stroke:#000000;stroke-opacity:1;stroke-width:0.3;stroke-miterlimit:4;stroke-dasharray:none" />
			</g>
			<g
   id="g816"
   style="fill:#000000;fill-opacity:1;stroke:#000000;stroke-opacity:1;stroke-width:0.3;stroke-miterlimit:4;stroke-dasharray:none">
				<path
   d="M 64.2,32 C 48.6,32 32,27.8 32,20 h 3 c 0,4.2 12.5,9 29.2,9 16.7,0 29.2,-4.7 29.2,-9 h 3 c 0,7.8 -16.6,12 -32.2,12 z"
   id="path818"
   inkscape:connector-curvature="0"
   style="fill:#000000;fill-opacity:1;stroke:#000000;stroke-opacity:1;stroke-width:0.3;stroke-miterlimit:4;stroke-dasharray:none" />
			</g>
			<g
   id="g820"
   style="fill:#000000;fill-opacity:1;stroke:#000000;stroke-opacity:1;stroke-width:0.3;stroke-miterlimit:4;stroke-dasharray:none">
				<path
   d="m 64.2,120.7 c -15.6,0 -32.2,-4.2 -32.2,-12 h 3 c 0,4.2 12.5,9 29.2,9 16.7,0 29.2,-4.7 29.2,-9 h 3 c 0,7.8 -16.6,12 -32.2,12 z"
   id="path822"
   inkscape:connector-curvature="0"
   style="fill:#000000;fill-opacity:1;stroke:#000000;stroke-opacity:1;stroke-width:0.3;stroke-miterlimit:4;stroke-dasharray:none" />
			</g>
			<g
   id="g824"
   style="fill:#000000;fill-opacity:1;stroke:#000000;stroke-opacity:1;stroke-width:0.3;stroke-miterlimit:4;stroke-dasharray:none">
				<path
   d="m 34.9,116 h -3 V 98.6 c 0,-5.7 2,-11.2 5.5,-15.7 L 48.3,69.3 c 2.2,-2.8 2.2,-6.7 0,-9.4 L 37.4,46.2 C 33.9,41.8 31.9,36.2 31.9,30.5 V 13.1 h 3 v 17.5 c 0,5 1.7,9.9 4.8,13.8 l 11,13.6 c 3.1,3.9 3.1,9.3 0,13.2 L 39.8,84.8 c -3.1,3.9 -4.9,8.8 -4.9,13.8 V 116 z"
   id="path826"
   inkscape:connector-curvature="0"
   style="fill:#000000;fill-opacity:1;stroke:#000000;stroke-opacity:1;stroke-width:0.3;stroke-miterlimit:4;stroke-dasharray:none" />
			</g>
			<g
   id="g828"
   style="fill:#000000;fill-opacity:1;stroke:#000000;stroke-opacity:1;stroke-width:0.3;stroke-miterlimit:4;stroke-dasharray:none">
				<path
   d="M 88.5,84.8 77.6,71.1 c -3.1,-3.9 -3.1,-9.3 0,-13.2 L 88.5,44.3 c 3.1,-3.9 4.8,-8.8 4.8,-13.8 V 13.1 h 3 v 17.5 c 0,5.7 -2,11.2 -5.5,15.7 L 80,59.8 c -2.2,2.8 -2.2,6.7 0,9.4 l 10.9,13.6 -2.4,2 z"
   id="path830"
   inkscape:connector-curvature="0"
   style="fill:#000000;fill-opacity:1;stroke:#000000;stroke-opacity:1;stroke-width:0.3;stroke-miterlimit:4;stroke-dasharray:none" />
			</g>
			<g
   id="g832"
   style="fill:#000000;fill-opacity:1;stroke:#000000;stroke-opacity:1;stroke-width:0.3;stroke-miterlimit:4;stroke-dasharray:none">
				<rect
   x="93.400002"
   y="108.7"
   width="3"
   height="7.3000002"
   id="rect834"
   style="fill:#000000;fill-opacity:1;stroke:#000000;stroke-opacity:1;stroke-width:0.3;stroke-miterlimit:4;stroke-dasharray:none" />
			</g>
			<g
   id="g836"
   style="fill:#000000;fill-opacity:1;stroke:#000000;stroke-opacity:1;stroke-width:0.3;stroke-miterlimit:4;stroke-dasharray:none">
				<path
   d="m 96.4,108.7 h -3 V 98.6 c 0,-5 -1.7,-9.9 -4.9,-13.8 l 2.3,-1.9 c 3.6,4.4 5.5,10 5.5,15.7 v 10.1 z"
   id="path838"
   inkscape:connector-curvature="0"
   style="fill:#000000;fill-opacity:1;stroke:#000000;stroke-opacity:1;stroke-width:0.3;stroke-miterlimit:4;stroke-dasharray:none" />
			</g>
			<g
   id="g840"
   style="fill:#000000;fill-opacity:1;stroke:#000000;stroke-opacity:1;stroke-width:0.3;stroke-miterlimit:4;stroke-dasharray:none">
				<path
   d="m 64.2,66.7 c -0.8,0 -1.5,-0.3 -2,-0.9 L 50.4,52.4 c -0.7,-0.7 -0.9,-1.8 -0.5,-2.7 0.3,-0.9 1.1,-1.6 2.1,-1.8 1.3,-0.2 2.6,0 3.6,0.8 l 0.8,0.5 c 1.1,0.7 2.4,0.7 3.5,0 l 1.5,-1 c 1.7,-1.2 4,-1.1 5.7,0.1 l 1.2,0.9 c 1.1,0.8 2.5,0.8 3.6,0.1 l 1,-0.7 c 1.1,-0.7 2.4,-1 3.6,-0.7 1,0.2 1.7,0.8 2.1,1.8 0.3,0.9 0.1,2 -0.5,2.7 l 0,0 -12,13.4 c -0.5,0.5 -1.2,0.9 -1.9,0.9 z M 52.8,49.6 c -0.2,0 -0.4,0 -0.6,0.1 -0.5,0.1 -0.6,0.4 -0.7,0.6 -0.1,0.3 0,0.7 0.2,0.9 l 11.8,13.4 c 0.3,0.4 0.9,0.4 1.3,0 L 76.6,51.2 c 0.2,-0.3 0.3,-0.6 0.2,-0.9 -0.1,-0.2 -0.2,-0.5 -0.7,-0.6 -0.8,-0.2 -1.6,0 -2.3,0.5 l -1,0.7 c -1.7,1.2 -4,1.1 -5.7,-0.2 L 65.9,49.8 C 64.8,49 63.4,49 62.3,49.7 l -1.5,1 c -1.7,1.1 -3.8,1.1 -5.5,0 L 54.5,50.2 C 54,49.8 53.4,49.6 52.8,49.6 z"
   id="path842"
   inkscape:connector-curvature="0"
   style="fill:#000000;fill-opacity:1;stroke:#000000;stroke-opacity:1;stroke-width:0.3;stroke-miterlimit:4;stroke-dasharray:none" />
			</g>
			<g
   id="g844"
   style="fill:#000000;fill-opacity:1;stroke:#000000;stroke-opacity:1;stroke-width:0.3;stroke-miterlimit:4;stroke-dasharray:none">
				<path
   d="m 88.8,105 0,-6 c 0,-4.2 -1.5,-8.4 -4.1,-11.7 l 1.4,-1.1 c 2.9,3.6 4.5,8.2 4.5,12.8 l 0,6 -1.8,0 z"
   id="path846"
   inkscape:connector-curvature="0"
   style="fill:#000000;fill-opacity:1;stroke:#000000;stroke-opacity:1;stroke-width:0.3;stroke-miterlimit:4;stroke-dasharray:none" />
			</g>
			<g
   id="g848"
   style="fill:#000000;fill-opacity:1;stroke:#000000;stroke-opacity:1;stroke-width:0.3;stroke-miterlimit:4;stroke-dasharray:none">
				<path
   d="m 39.5,105 -1.8,0 0,-6 c 0,-4.6 1.6,-9.2 4.5,-12.8 L 49,77.8 c 1.6,-2 4.5,-2.4 6.6,-1 l 0.8,0.5 c 1.1,0.7 2.4,0.7 3.5,0 l 1.5,-1 c 1.7,-1.2 4,-1.1 5.7,0.1 l 1.2,0.9 c 1.1,0.8 2.5,0.8 3.6,0.1 l 1,-0.7 c 2.1,-1.4 5,-1 6.6,1 l 6.8,8.4 -1.4,1.1 -6.8,-8.4 c -1,-1.3 -2.8,-1.5 -4.2,-0.6 l -1,0.7 c -1.7,1.2 -4,1.1 -5.7,-0.2 L 66,77.8 C 64.9,77 63.5,77 62.4,77.7 l -1.5,1 c -1.7,1.1 -3.8,1.1 -5.5,0 l -0.8,-0.5 c -1.3,-0.9 -3.2,-0.6 -4.2,0.6 l -6.8,8.4 c -2.6,3.3 -4.1,7.5 -4.1,11.7 l 0,6.1 z"
   id="path850"
   inkscape:connector-curvature="0"
   style="fill:#000000;fill-opacity:1;stroke:#000000;stroke-opacity:1;stroke-width:0.3;stroke-miterlimit:4;stroke-dasharray:none" />
			</g>
		</g>
	</g>
</g>
</svg>